<svg width="645" height="112" viewBox="0 0 645 112" fill="none" xmlns="http://www.w3.org/2000/svg">
<path d="M0.781408 64.5246L25.5166 109.145C27.7007 112.916 33.1837 112.961 35.4354 109.223L47.1894 89.7078C48.2702 87.9114 48.2702 85.6687 47.1894 83.8723L33.2062 58.7783C32.1704 57.06 30.2902 56 28.2749 56H5.75771C1.33308 56 -1.42528 60.7421 0.770149 64.5358L0.781408 64.5246Z" fill="url(#paint0_linear_2002_3)"/>
<path d="M52.9035 89.7124L65.6374 109.384C67.9864 113.011 73.3924 112.833 75.4941 109.061L99.2761 64.4225C101.389 60.6396 98.6242 56 94.2522 56H72.2235C70.2342 56 68.391 57.0236 67.3457 58.6925L52.8585 83.6709C51.7009 85.529 51.7121 87.8877 52.9035 89.7235V89.7124Z" fill="url(#paint1_linear_2002_3)"/>
<path d="M80.0965 22.2876L67.3626 2.61644C65.0136 -1.0107 59.6076 -0.83268 57.5059 2.93911L33.7239 47.5775C31.611 51.3604 34.3758 56 38.7478 56L60.7765 56C62.7658 56 64.609 54.9764 65.6543 53.3075L80.1415 28.3291C81.2991 26.471 81.2879 24.1123 80.0965 22.2765V22.2876Z" fill="url(#paint2_linear_2002_3)"/>
<path d="M166.77 99.213C161.089 99.213 156.701 98.182 153.606 96.119C150.511 94.056 148.233 91.747 146.772 89.19H144.879V97.546H132.861V14.174H145.117V46.844H147.01C147.939 45.22 149.208 43.683 150.816 42.232C152.424 40.781 154.536 39.583 157.153 38.638C159.77 37.693 162.975 37.221 166.771 37.221C171.701 37.221 176.219 38.406 180.325 40.776C184.43 43.146 187.714 46.587 190.175 51.099C192.636 55.611 193.867 61.027 193.867 67.348V69.086C193.867 75.407 192.629 80.824 190.154 85.335C187.679 89.847 184.389 93.288 180.283 95.658C176.178 98.028 171.673 99.213 166.77 99.213ZM163.245 88.445C168.545 88.445 172.917 86.741 176.361 83.333C179.805 79.925 181.527 75.071 181.527 68.771V67.662C181.527 61.362 179.818 56.508 176.399 53.1C172.98 49.692 168.596 47.988 163.245 47.988C157.972 47.988 153.607 49.692 150.149 53.1C146.691 56.508 144.962 61.362 144.962 67.662V68.771C144.962 75.071 146.691 79.925 150.149 83.333C153.607 86.741 157.972 88.445 163.245 88.445Z" fill="white"/>
<path d="M236.015 99.213C230.112 99.213 224.931 97.962 220.473 95.461C216.015 92.96 212.542 89.433 210.054 84.881C207.566 80.329 206.323 75.012 206.323 68.931V67.502C206.323 61.392 207.554 56.068 210.015 51.53C212.476 46.992 215.91 43.473 220.315 40.972C224.72 38.471 229.804 37.22 235.569 37.22C241.226 37.22 246.178 38.455 250.424 40.924C254.67 43.394 257.984 46.856 260.366 51.31C262.748 55.765 263.939 60.981 263.939 66.96V71.622H218.734C218.92 76.783 220.672 80.877 223.989 83.904C227.307 86.931 231.419 88.445 236.325 88.445C240.95 88.445 244.429 87.421 246.761 85.373C249.093 83.325 250.873 80.953 252.1 78.257L262.324 83.438C261.185 85.697 259.564 88.052 257.459 90.501C255.355 92.951 252.584 95.015 249.145 96.694C245.707 98.373 241.329 99.213 236.013 99.213H236.015ZM218.853 62.178H251.487C251.169 57.764 249.571 54.295 246.69 51.772C243.81 49.249 240.077 47.988 235.492 47.988C230.831 47.988 227.059 49.249 224.177 51.772C221.295 54.295 219.52 57.763 218.853 62.178Z" fill="white"/>
<path d="M305.613 99.213C299.71 99.213 294.529 97.962 290.071 95.461C285.613 92.96 282.14 89.433 279.652 84.881C277.164 80.329 275.921 75.012 275.921 68.931V67.502C275.921 61.392 277.152 56.068 279.613 51.53C282.074 46.992 285.508 43.473 289.913 40.972C294.318 38.471 299.402 37.22 305.167 37.22C310.824 37.22 315.776 38.455 320.022 40.924C324.268 43.394 327.582 46.856 329.964 51.31C332.346 55.765 333.537 60.981 333.537 66.96V71.622H288.332C288.518 76.783 290.27 80.877 293.587 83.904C296.905 86.931 301.017 88.445 305.923 88.445C310.548 88.445 314.027 87.421 316.359 85.373C318.691 83.325 320.471 80.953 321.698 78.257L331.922 83.438C330.783 85.697 329.162 88.052 327.057 90.501C324.953 92.951 322.182 95.015 318.743 96.694C315.305 98.373 310.927 99.213 305.611 99.213H305.613ZM288.451 62.178H321.085C320.767 57.764 319.169 54.295 316.288 51.772C313.408 49.249 309.675 47.988 305.09 47.988C300.429 47.988 296.657 49.249 293.775 51.772C290.893 54.295 289.118 57.763 288.451 62.178Z" fill="white"/>
<path d="M348.377 97.545V38.887H360.395V47.671H362.288C363.408 45.246 365.39 43.002 368.232 40.942C371.074 38.881 375.309 37.851 380.935 37.851C385.401 37.851 389.368 38.841 392.836 40.82C396.304 42.799 399.025 45.607 401 49.244C402.975 52.88 403.963 57.229 403.963 62.291V97.545H391.707V63.232C391.707 58.118 390.442 54.352 387.911 51.934C385.38 49.516 381.868 48.307 377.374 48.307C372.296 48.307 368.237 49.988 365.196 53.351C362.155 56.714 360.635 61.566 360.635 67.907V97.545H348.379H348.377Z" fill="white"/>
<path d="M439.711 99.213C435.559 99.213 431.822 98.492 428.5 97.051C425.179 95.61 422.553 93.501 420.622 90.724C418.691 87.947 417.725 84.575 417.725 80.609C417.725 76.615 418.691 73.284 420.622 70.614C422.553 67.944 425.211 65.935 428.595 64.587C431.98 63.239 435.812 62.565 440.092 62.565H458.041V58.772C458.041 55.325 457.001 52.563 454.92 50.485C452.839 48.407 449.657 47.368 445.373 47.368C441.17 47.368 437.953 48.361 435.724 50.346C433.495 52.331 432.019 54.937 431.297 58.164L419.898 54.436C420.851 51.28 422.372 48.41 424.462 45.825C426.552 43.241 429.343 41.16 432.835 39.584C436.327 38.008 440.558 37.22 445.53 37.22C453.144 37.22 459.124 39.151 463.469 43.014C467.814 46.877 469.987 52.403 469.987 59.593V83.754C469.987 86.136 471.099 87.327 473.322 87.327H478.378V97.546H469.207C466.435 97.546 464.18 96.825 462.441 95.382C460.702 93.939 459.833 91.999 459.833 89.561V89.191H457.946C457.378 90.422 456.448 91.832 455.155 93.423C453.863 95.014 451.984 96.376 449.518 97.512C447.052 98.647 443.783 99.215 439.71 99.215L439.711 99.213ZM441.581 89.065C446.457 89.065 450.419 87.658 453.468 84.843C456.517 82.029 458.041 78.175 458.041 73.284V72.009H440.831C437.579 72.009 434.958 72.709 432.966 74.108C430.975 75.507 429.979 77.557 429.979 80.257C429.979 82.957 431.014 85.1 433.085 86.686C435.156 88.272 437.987 89.065 441.58 89.065H441.581Z" fill="white"/>
<path d="M516.116 99.213C510.426 99.213 505.301 98.015 500.74 95.619C496.179 93.223 492.576 89.762 489.931 85.237C487.287 80.711 485.964 75.288 485.964 68.966V67.466C485.964 61.118 487.286 55.687 489.931 51.175C492.575 46.663 496.178 43.209 500.74 40.813C505.301 38.417 510.427 37.219 516.116 37.219C521.725 37.219 526.52 38.232 530.5 40.259C534.48 42.286 537.665 45.012 540.055 48.438C542.445 51.864 543.996 55.65 544.707 59.795L532.802 62.309C532.457 59.676 531.645 57.289 530.367 55.147C529.089 53.005 527.291 51.302 524.975 50.038C522.659 48.774 519.783 48.142 516.349 48.142C512.915 48.142 509.827 48.908 507.085 50.44C504.343 51.972 502.18 54.195 500.597 57.11C499.013 60.024 498.221 63.542 498.221 67.662V68.771C498.221 72.891 499.013 76.408 500.597 79.323C502.181 82.237 504.343 84.461 507.085 85.993C509.827 87.525 512.915 88.291 516.349 88.291C521.514 88.291 525.441 86.953 528.131 84.278C530.821 81.603 532.511 78.192 533.202 74.047L545.105 76.792C544.184 80.834 542.515 84.568 540.097 87.994C537.679 91.42 534.48 94.146 530.5 96.173C526.52 98.2 521.725 99.213 516.116 99.213Z" fill="white"/>
<path d="M571.582 14.173H559.326V97.545H571.582V14.173Z" fill="white"/>
<path d="M616.59 99.213C610.687 99.213 605.506 97.962 601.048 95.461C596.59 92.96 593.117 89.433 590.629 84.881C588.141 80.329 586.898 75.012 586.898 68.931V67.502C586.898 61.392 588.129 56.068 590.59 51.53C593.051 46.992 596.485 43.473 600.89 40.972C605.295 38.471 610.379 37.22 616.144 37.22C621.801 37.22 626.753 38.455 630.999 40.924C635.245 43.394 638.559 46.856 640.941 51.31C643.323 55.765 644.514 60.981 644.514 66.96V71.622H599.309C599.495 76.783 601.247 80.877 604.564 83.904C607.882 86.931 611.994 88.445 616.9 88.445C621.525 88.445 625.004 87.421 627.336 85.373C629.668 83.325 631.448 80.953 632.675 78.257L642.899 83.438C641.76 85.697 640.139 88.052 638.034 90.501C635.93 92.951 633.159 95.015 629.72 96.694C626.282 98.373 621.904 99.213 616.588 99.213H616.59ZM599.428 62.178H632.062C631.744 57.764 630.146 54.295 627.265 51.772C624.385 49.249 620.652 47.988 616.067 47.988C611.406 47.988 607.634 49.249 604.752 51.772C601.87 54.295 600.095 57.763 599.428 62.178Z" fill="white"/>
<defs>
<linearGradient id="paint0_linear_2002_3" x1="38.7116" y1="106.612" x2="21.3238" y2="66.0954" gradientUnits="userSpaceOnUse">
<stop stop-color="#6CFA71"/>
<stop offset="1" stop-color="#39ED99"/>
</linearGradient>
<linearGradient id="paint1_linear_2002_3" x1="80.8551" y1="43.2827" x2="73.6144" y2="85.3645" gradientUnits="userSpaceOnUse">
<stop stop-color="#8867F8"/>
<stop offset="1" stop-color="#9A77FB"/>
</linearGradient>
<linearGradient id="paint2_linear_2002_3" x1="52.1449" y1="68.7173" x2="59.3856" y2="26.6355" gradientUnits="userSpaceOnUse">
<stop stop-color="#8867F8"/>
<stop offset="1" stop-color="#9A77FB"/>
</linearGradient>
</defs>
</svg>
