<svg width="646" height="114" viewBox="0 0 646 114" fill="none" xmlns="http://www.w3.org/2000/svg">
<path d="M167.77 99.213C162.089 99.213 157.701 98.182 154.606 96.119C151.511 94.056 149.233 91.747 147.772 89.19H145.879V97.546H133.861V14.174H146.117V46.844H148.01C148.939 45.22 150.208 43.683 151.816 42.232C153.424 40.781 155.536 39.583 158.153 38.638C160.77 37.693 163.975 37.221 167.771 37.221C172.701 37.221 177.219 38.406 181.325 40.776C185.43 43.146 188.714 46.587 191.175 51.099C193.636 55.611 194.867 61.027 194.867 67.348V69.086C194.867 75.407 193.629 80.824 191.154 85.335C188.679 89.847 185.389 93.288 181.283 95.658C177.178 98.028 172.673 99.213 167.77 99.213ZM164.245 88.445C169.545 88.445 173.917 86.741 177.361 83.333C180.805 79.925 182.527 75.071 182.527 68.771V67.662C182.527 61.362 180.818 56.508 177.399 53.1C173.98 49.692 169.596 47.988 164.245 47.988C158.972 47.988 154.607 49.692 151.149 53.1C147.691 56.508 145.962 61.362 145.962 67.662V68.771C145.962 75.071 147.691 79.925 151.149 83.333C154.607 86.741 158.972 88.445 164.245 88.445Z" fill="#0A192F"/>
<path d="M237.015 99.213C231.112 99.213 225.931 97.962 221.473 95.461C217.015 92.96 213.542 89.433 211.054 84.881C208.566 80.329 207.323 75.012 207.323 68.931V67.502C207.323 61.392 208.554 56.068 211.015 51.53C213.476 46.992 216.91 43.473 221.315 40.972C225.72 38.471 230.804 37.22 236.569 37.22C242.226 37.22 247.178 38.455 251.424 40.924C255.67 43.394 258.984 46.856 261.366 51.31C263.748 55.765 264.939 60.981 264.939 66.96V71.622H219.734C219.92 76.783 221.672 80.877 224.989 83.904C228.307 86.931 232.419 88.445 237.325 88.445C241.95 88.445 245.429 87.421 247.761 85.373C250.093 83.325 251.873 80.953 253.1 78.257L263.324 83.438C262.185 85.697 260.564 88.052 258.459 90.501C256.355 92.951 253.584 95.015 250.145 96.694C246.707 98.373 242.329 99.213 237.013 99.213H237.015ZM219.853 62.178H252.487C252.169 57.764 250.571 54.295 247.69 51.772C244.81 49.249 241.077 47.988 236.492 47.988C231.831 47.988 228.059 49.249 225.177 51.772C222.295 54.295 220.52 57.763 219.853 62.178Z" fill="#0A192F"/>
<path d="M306.613 99.213C300.71 99.213 295.529 97.962 291.071 95.461C286.613 92.96 283.14 89.433 280.652 84.881C278.164 80.329 276.921 75.012 276.921 68.931V67.502C276.921 61.392 278.152 56.068 280.613 51.53C283.074 46.992 286.508 43.473 290.913 40.972C295.318 38.471 300.402 37.22 306.167 37.22C311.824 37.22 316.776 38.455 321.022 40.924C325.268 43.394 328.582 46.856 330.964 51.31C333.346 55.765 334.537 60.981 334.537 66.96V71.622H289.332C289.518 76.783 291.27 80.877 294.587 83.904C297.905 86.931 302.017 88.445 306.923 88.445C311.548 88.445 315.027 87.421 317.359 85.373C319.691 83.325 321.471 80.953 322.698 78.257L332.922 83.438C331.783 85.697 330.162 88.052 328.057 90.501C325.953 92.951 323.182 95.015 319.743 96.694C316.305 98.373 311.927 99.213 306.611 99.213H306.613ZM289.451 62.178H322.085C321.767 57.764 320.169 54.295 317.288 51.772C314.408 49.249 310.675 47.988 306.09 47.988C301.429 47.988 297.657 49.249 294.775 51.772C291.893 54.295 290.118 57.763 289.451 62.178Z" fill="#0A192F"/>
<path d="M349.377 97.545V38.887H361.395V47.671H363.288C364.408 45.246 366.39 43.002 369.232 40.942C372.074 38.881 376.309 37.851 381.935 37.851C386.401 37.851 390.368 38.841 393.836 40.82C397.304 42.799 400.025 45.607 402 49.244C403.975 52.88 404.963 57.229 404.963 62.291V97.545H392.707V63.232C392.707 58.118 391.442 54.352 388.911 51.934C386.38 49.516 382.868 48.307 378.374 48.307C373.296 48.307 369.237 49.988 366.196 53.351C363.155 56.714 361.635 61.566 361.635 67.907V97.545H349.379H349.377Z" fill="#0A192F"/>
<path d="M440.711 99.213C436.559 99.213 432.822 98.492 429.5 97.051C426.179 95.61 423.553 93.501 421.622 90.724C419.691 87.947 418.725 84.575 418.725 80.609C418.725 76.615 419.691 73.284 421.622 70.614C423.553 67.944 426.211 65.935 429.595 64.587C432.98 63.239 436.812 62.565 441.092 62.565H459.041V58.772C459.041 55.325 458.001 52.563 455.92 50.485C453.839 48.407 450.657 47.368 446.373 47.368C442.17 47.368 438.953 48.361 436.724 50.346C434.495 52.331 433.019 54.937 432.297 58.164L420.898 54.436C421.851 51.28 423.372 48.41 425.462 45.825C427.552 43.241 430.343 41.16 433.835 39.584C437.327 38.008 441.558 37.22 446.53 37.22C454.144 37.22 460.124 39.151 464.469 43.014C468.814 46.877 470.987 52.403 470.987 59.593V83.754C470.987 86.136 472.099 87.327 474.322 87.327H479.378V97.546H470.207C467.435 97.546 465.18 96.825 463.441 95.382C461.702 93.939 460.833 91.999 460.833 89.561V89.191H458.946C458.378 90.422 457.448 91.832 456.155 93.423C454.863 95.014 452.984 96.376 450.518 97.512C448.052 98.647 444.783 99.215 440.71 99.215L440.711 99.213ZM442.581 89.065C447.457 89.065 451.419 87.658 454.468 84.843C457.517 82.029 459.041 78.175 459.041 73.284V72.009H441.831C438.579 72.009 435.958 72.709 433.966 74.108C431.975 75.507 430.979 77.557 430.979 80.257C430.979 82.957 432.014 85.1 434.085 86.686C436.156 88.272 438.987 89.065 442.58 89.065H442.581Z" fill="#0A192F"/>
<path d="M517.116 99.213C511.426 99.213 506.301 98.015 501.74 95.619C497.179 93.223 493.576 89.762 490.931 85.237C488.287 80.711 486.964 75.288 486.964 68.966V67.466C486.964 61.118 488.286 55.687 490.931 51.175C493.575 46.663 497.178 43.209 501.74 40.813C506.301 38.417 511.427 37.219 517.116 37.219C522.725 37.219 527.52 38.232 531.5 40.259C535.48 42.286 538.665 45.012 541.055 48.438C543.445 51.864 544.996 55.65 545.707 59.795L533.802 62.309C533.457 59.676 532.645 57.289 531.367 55.147C530.089 53.005 528.291 51.302 525.975 50.038C523.659 48.774 520.783 48.142 517.349 48.142C513.915 48.142 510.827 48.908 508.085 50.44C505.343 51.972 503.18 54.195 501.597 57.11C500.013 60.024 499.221 63.542 499.221 67.662V68.771C499.221 72.891 500.013 76.408 501.597 79.323C503.181 82.237 505.343 84.461 508.085 85.993C510.827 87.525 513.915 88.291 517.349 88.291C522.514 88.291 526.441 86.953 529.131 84.278C531.821 81.603 533.511 78.192 534.202 74.047L546.105 76.792C545.184 80.834 543.515 84.568 541.097 87.994C538.679 91.42 535.48 94.146 531.5 96.173C527.52 98.2 522.725 99.213 517.116 99.213Z" fill="#0A192F"/>
<path d="M572.582 14.173H560.326V97.545H572.582V14.173Z" fill="#0A192F"/>
<path d="M617.59 99.213C611.687 99.213 606.506 97.962 602.048 95.461C597.59 92.96 594.117 89.433 591.629 84.881C589.141 80.329 587.898 75.012 587.898 68.931V67.502C587.898 61.392 589.129 56.068 591.59 51.53C594.051 46.992 597.485 43.473 601.89 40.972C606.295 38.471 611.379 37.22 617.144 37.22C622.801 37.22 627.753 38.455 631.999 40.924C636.245 43.394 639.559 46.856 641.941 51.31C644.323 55.765 645.514 60.981 645.514 66.96V71.622H600.309C600.495 76.783 602.247 80.877 605.564 83.904C608.882 86.931 612.994 88.445 617.9 88.445C622.525 88.445 626.004 87.421 628.336 85.373C630.668 83.325 632.448 80.953 633.675 78.257L643.899 83.438C642.76 85.697 641.139 88.052 639.034 90.501C636.93 92.951 634.159 95.015 630.72 96.694C627.282 98.373 622.904 99.213 617.588 99.213H617.59ZM600.428 62.178H633.062C632.744 57.764 631.146 54.295 628.265 51.772C625.385 49.249 621.652 47.988 617.067 47.988C612.406 47.988 608.634 49.249 605.752 51.772C602.87 54.295 601.095 57.763 600.428 62.178Z" fill="#0A192F"/>
<path d="M1.78141 64.5246L26.5166 109.145C28.7007 112.916 34.1837 112.961 36.4354 109.223L48.1894 89.7078C49.2702 87.9114 49.2702 85.6687 48.1894 83.8723L34.2062 58.7783C33.1704 57.06 31.2902 56 29.2749 56H6.75771C2.33308 56 -0.425279 60.7421 1.77015 64.5358L1.78141 64.5246Z" fill="url(#paint0_linear_23_150)"/>
<path d="M53.9035 89.7124L66.6374 109.384C68.9864 113.011 74.3924 112.833 76.4941 109.061L100.276 64.4225C102.389 60.6396 99.6242 56 95.2522 56H73.2235C71.2342 56 69.391 57.0236 68.3457 58.6925L53.8585 83.6709C52.7009 85.529 52.7121 87.8877 53.9035 89.7235V89.7124Z" fill="url(#paint1_linear_23_150)"/>
<path d="M81.0965 22.8896L68.3626 3.56972C66.0136 0.00734711 60.6076 0.18219 58.5059 3.88662L34.7239 47.7279C32.611 51.4432 35.3758 56 39.7478 56L61.7765 56C63.7658 56 65.609 54.9947 66.6543 53.3555L81.1415 28.8232C82.2991 26.9983 82.2879 24.6817 81.0965 22.8787V22.8896Z" fill="url(#paint2_linear_23_150)"/>
<defs>
<linearGradient id="paint0_linear_23_150" x1="39.7116" y1="106.612" x2="22.3238" y2="66.0954" gradientUnits="userSpaceOnUse">
<stop stop-color="#6CFA71"/>
<stop offset="1" stop-color="#39ED99"/>
</linearGradient>
<linearGradient id="paint1_linear_23_150" x1="81.8551" y1="43.2827" x2="74.6144" y2="85.3645" gradientUnits="userSpaceOnUse">
<stop stop-color="#8867F8"/>
<stop offset="1" stop-color="#9A77FB"/>
</linearGradient>
<linearGradient id="paint2_linear_23_150" x1="53.1449" y1="68.4902" x2="60.1364" y2="27.1178" gradientUnits="userSpaceOnUse">
<stop stop-color="#8867F8"/>
<stop offset="1" stop-color="#9A77FB"/>
</linearGradient>
</defs>
</svg>
